<svg style="vertical-align:0" xmlns="http://www.w3.org/2000/svg" width="3.896ex" height="1.595ex" viewBox="0 -705 1722 705" xmlns:xlink="http://www.w3.org/1999/xlink"><defs><path id="a" d="M226 668q-36 0-64-12t-38-24l-10-11q2 0 5-1t11-4 15-9 12-16 5-24q0-23-15-38t-38-15-38 14-16 38q0 59 45 95t99 43h11q9 0 14 1h4q53 0 92-13t58-36 29-44 9-45q0-64-55-105-94-67-114-159-5-24-5-62v-17q0-19-3-22t-17-4-17 3-3 17v31q2 71 18 122t35 74 37 46 23 46q2 9 2 37v13q0 17-2 28t-11 25-27 21-51 7ZM162 61q0 28 18 44t44 16q23-2 40-17t17-43q0-30-17-45T222 1q-25 0-42 15t-18 45Z"/><path id="b" d="M630 29q0-20-21-20-5 0-22 16t-94 93L389 222 284 117Q178 13 175 11q-4-2-7-2-8 0-14 6t-7 14q0 7 14 22t94 95l104 104-104 104q-81 81-94 95t-14 22q0 9 6 14t15 5q5 0 7-1 3-2 109-106l105-105 104 104q77 77 94 93t22 16q21 0 21-20 0-7-10-18t-98-98L418 250l104-105q84-84 96-97t12-19Z"/></defs><g stroke="currentColor" fill="currentColor" stroke-width="0"><use data-c="3F" xlink:href="#a" transform="scale(1 -1)"/><use data-c="D7" xlink:href="#b" transform="scale(1 -1) translate(472)"/><use data-c="3F" xlink:href="#a" transform="scale(1 -1) translate(1250)"/></g></svg>