<svg style="vertical-align:-.025ex" xmlns="http://www.w3.org/2000/svg" width="2.262ex" height="1.025ex"
    viewBox="0 -442 1000 453" xmlns:xlink="http://www.w3.org/1999/xlink">
    <defs>
        <path id="a"
            d="M55 217q0 88 56 156t143 69q88 0 165-61 38-31 74-78l14-19 7 10q104 148 233 148 86 0 141-68t56-160q0-86-55-155T743-11q-86 0-163 61-38 31-74 78l-14 19-7-10Q381-11 252-11q-86 0-141 68T55 217Zm852 0q0 68-38 124t-108 56q-21 0-41-5t-38-14-34-19-29-24-25-25-20-25-15-22-11-17l-5-8 31-40q31-40 48-60t42-44 50-33 51-10q62 0 102 49t40 117Zm-815-3q0-69 39-125t108-56q118 0 217 160l-31 40q-61 79-91 104-49 43-101 43-62 0-101-49T92 214Z" />
    </defs>
    <g stroke="currentColor" fill="white" stroke-width="0">
        <use data-c="221E" xlink:href="#a" transform="scale(1 -1)" />
    </g>
</svg>