<svg style="vertical-align:-.566ex" xmlns="http://www.w3.org/2000/svg" width="6.863ex" height="2.262ex"
    viewBox="0 -750 3033.6 1000" xmlns:xlink="http://www.w3.org/1999/xlink">
    <defs>
        <path id="a" d="M118-250V750h137v-40h-97v-920h97v-40H118Z" />
        <path id="b"
            d="M52 289q7 42 54 97t116 56q35 0 64-18t43-45q42 63 101 63 37 0 64-22t28-59q0-29-14-47t-27-22-23-4q-19 0-31 11t-12 29q0 46 50 63-11 13-40 13-13 0-19-2-38-16-56-66-60-221-60-258 0-28 16-40t35-12q37 0 73 33t49 81q3 10 6 11t16 2h4q15 0 15-8 0-1-2-11-16-57-62-101T333-11q-70 0-106 63-41-62-94-62h-6q-49 0-70 26T35 71q0 32 19 52t45 20q43 0 43-42 0-20-12-35t-23-20-13-5l-3-1q0-1 6-4t16-7 19-3q36 0 62 45 9 16 23 68t28 108 16 66q5 27 5 39 0 28-15 40t-34 12q-40 0-75-32t-49-82q-2-9-5-10t-16-2H58q-6 6-6 11Z" />
        <path id="c" d="M22 710v40h137V-250H22v40h97v920H22Z" />
        <path id="d"
            d="M56 347q0 13 14 20h637q15-8 15-20 0-11-14-19l-318-1H72q-16 5-16 20Zm0-194q0 15 16 20h636q14-10 14-20 0-13-15-20H70q-14 7-14 20Z" />
    </defs>
    <g stroke="currentColor" fill="white" stroke-width="0">
        <use data-c="5B" xlink:href="#a" transform="scale(1 -1)" />
        <use data-c="1D465" xlink:href="#b" transform="scale(1 -1) translate(278)" />
        <use data-c="5D" xlink:href="#c" transform="scale(1 -1) translate(850)" />
        <use data-c="3D" xlink:href="#d" transform="scale(1 -1) translate(1405.8)" />
        <use data-c="1D465" xlink:href="#b" transform="scale(1 -1) translate(2461.6)" />
    </g>
</svg>