<svg style="vertical-align:-1.991ex" xmlns="http://www.w3.org/2000/svg" width="14.911ex" height="4.52ex"
    viewBox="0 -1118 6590.4 1998" xmlns:xlink="http://www.w3.org/1999/xlink">
    <defs>
        <path id="a"
            d="M52 289q7 42 54 97t116 56q35 0 64-18t43-45q42 63 101 63 37 0 64-22t28-59q0-29-14-47t-27-22-23-4q-19 0-31 11t-12 29q0 46 50 63-11 13-40 13-13 0-19-2-38-16-56-66-60-221-60-258 0-28 16-40t35-12q37 0 73 33t49 81q3 10 6 11t16 2h4q15 0 15-8 0-1-2-11-16-57-62-101T333-11q-70 0-106 63-41-62-94-62h-6q-49 0-70 26T35 71q0 32 19 52t45 20q43 0 43-42 0-20-12-35t-23-20-13-5l-3-1q0-1 6-4t16-7 19-3q36 0 62 45 9 16 23 68t28 108 16 66q5 27 5 39 0 28-15 40t-34 12q-40 0-75-32t-49-82q-2-9-5-10t-16-2H58q-6 6-6 11Z" />
        <path id="b"
            d="M56 347q0 13 14 20h637q15-8 15-20 0-11-14-19l-318-1H72q-16 5-16 20Zm0-194q0 15 16 20h636q14-10 14-20 0-13-15-20H70q-14 7-14 20Z" />
        <path id="c"
            d="M23 287q1 3 2 8t5 22 10 31 15 33 20 30 26 22 33 9q75 0 96-64l10 9q62 55 118 55 65 0 102-47t37-114q0-108-76-199T249-10q-22 0-39 6-11 5-23 15t-19 17l-7 8q-1-1-22-87t-21-87q0-6 8-7t37-3h25q6-7 6-9t-3-18q-3-12-6-15t-13-4h-11q-9 0-34 1t-62 1q-70 0-89-2h-8q-7 7-7 11 2 27 13 35h20q34 1 39 12 3 6 61 239t61 247q1 5 1 14 0 41-25 41-22 0-37-28t-23-61-12-36q-2-2-16-2H29q-6 6-6 9Zm155-185q22-76 74-76 30 0 58 23t46 58q18 34 36 108t19 110v6q0 74-61 74-11 0-22-3t-22-9-20-13-17-15-15-15-11-14-8-10l-3-4q0-1-3-14t-11-44-14-52q-26-106-26-110Z" />
        <path id="d"
            d="M33 157q0 101 76 192t171 92q60 0 92-52 1 1 5 6t11 11 16 12q34 24 46 24 4 0 7-3t3-5q0-9-69-285-71-284-71-288 0-8 45-9h25q6-8 6-9t-3-18q-4-13-10-19h-13q-31 2-108 2h-88q-14 0-17-1-14 0-14 8 0 3 2 15 4 16 7 19t20 3q48 0 58 7 8 5 28 88t21 85q0 1-7-3-48-39-100-39-55 0-97 40T33 157Zm319 169q-23 79-75 79-35 0-67-31t-50-81q-29-79-41-164v-11q0-8-1-12 0-45 18-62t43-18q54 0 111 72l8 11 54 217Z" />
        <path id="e"
            d="M78 370q0 24 17 42t43 18q24 0 42-16t19-43q0-25-17-43t-43-18-43 17-18 43Zm0-310q0 25 16 43t43 18q65 0 65-113 0-52-19-102t-39-75-26-25q-3 0-12 8t-11 12q-1 3 12 19t30 48 23 69q1 6 2 16t3 18 0 8q0 1-4 0t-19-4q-32 0-48 18T78 60Z" />
        <path id="f"
            d="M78 35v25l16 43 43 18q28 0 50-25t23-88q0-35-9-68t-21-57-26-41-24-27-13-9q-4 0-13 9t-9 13q0 4 11 16t25 30 26 50 16 73V9l-1-1q-2-1-5-2t-6-3-9-2-12-1q-27 0-44 17Z" />
        <path id="g"
            d="M84 250q0 122 82 200t194 89h17q16 0 42 1t50 0h99q15-8 15-20 0-9-13-19l-104-1q-111-1-137-6-49-12-87-36t-59-49-36-55-18-48-5-34v-2h444q15-8 15-20t-15-20H124v-2q0-21 10-51t33-65 64-64 97-41q27-6 138-7h104q13-10 13-20 0-12-15-20H446q-18 0-29-1-155 0-245 86-88 82-88 205Z" />
        <path id="h"
            d="M39-1Q29 9 29 12q0 11 31 65t159 260l191 311h-46q-103 0-154-20-42-16-68-40t-33-43-12-36-9-19q-3-1-8-1-8 0-19 14l9 85q2 19 5 40t4 34 2 13q3 2 7 6 2 2 253 2h251q12-10 12-17 0-4-192-318L221 37q0-2 80-2 105 0 145 13 58 20 97 63t54 101q5 27 20 27 7 0 12-5t6-11q0-8-14-110T604 8l-7-7q-2-2-280-2H39Zm109 638 18 11h-54v-16q-1-3-2-10t-2-10q0-4 2-4t6 4 13 11 19 14Zm404 9q0 2-48 2-52 0-54-5-2-4-184-300T77 37q0-2 51-2h51l187 304 186 307Zm20-611q9 54 9 62l-20-20q-19-18-35-29l-18-11 31-2h33Z" />
    </defs>
    <g stroke="currentColor" fill="white" stroke-width="0">
        <use data-c="1D465" xlink:href="#a" transform="scale(1 -1)" />
        <use data-c="3D" xlink:href="#b" transform="scale(1 -1) translate(849.8)" />
        <g transform="scale(1 -1) translate(1905.6)">
            <use data-c="1D45D" xlink:href="#c" transform="translate(220 676)" />
            <use data-c="1D45E" xlink:href="#d" transform="translate(241.5 -686)" />
            <path stroke="none" d="M120 220H823V280H120z" />
        </g>
        <use data-c="3B" xlink:href="#e" transform="scale(1 -1) translate(2848.6)" />
        <use data-c="1D45D" xlink:href="#c" transform="scale(1 -1) translate(3293.2)" />
        <use data-c="2C" xlink:href="#f" transform="scale(1 -1) translate(3796.2)" />
        <use data-c="1D45E" xlink:href="#d" transform="scale(1 -1) translate(4240.9)" />
        <use data-c="2208" xlink:href="#g" transform="scale(1 -1) translate(4978.7)" />
        <g data-mjx-texclass="ORD">
            <use data-c="2124" xlink:href="#h" transform="scale(1 -1) translate(5923.4)" />
        </g>
    </g>
</svg>